<svg width="21" height="20" viewBox="0 0 21 20" fill="none" xmlns="http://www.w3.org/2000/svg">
<path fill-rule="evenodd" clip-rule="evenodd" d="M7.69871 5.58966C8.42979 3.93116 9.82013 1.00049 10.5163 1.00049C11.5274 0.999488 13.7421 6.68649 13.7421 6.68649C13.7421 6.68649 15.7923 6.86549 17.4493 7.04849C18.3289 7.14549 19.8997 7.29349 19.998 7.77849C20.019 7.88349 19.8927 8.31249 19.663 8.61149C18.69 9.88149 16.1654 12.6025 16.1654 12.6025C16.1654 12.6025 16.3038 13.9025 16.4272 15.3245C16.5064 16.2445 16.7201 18.1085 16.6428 18.4415C16.5586 18.8085 16.4071 18.9085 16.2497 18.9665C15.8384 19.1165 14.8835 18.5335 13.7682 17.9995C12.2486 17.2705 10.5414 16.4915 10.5414 16.4915C10.5414 16.4915 9.41501 17.0805 8.07998 17.6555C6.65367 18.2695 5.20931 19.2815 4.60649 18.9255C4.23035 18.7025 4.50919 16.9645 4.65363 15.4175C4.78904 13.9585 4.90639 12.6255 4.90639 12.6255C4.90639 12.6255 4.06987 11.6435 3.09592 10.5935C2.04375 9.45849 0.760872 8.23349 1.03871 7.78349C1.24834 7.44349 2.20523 7.26149 3.81209 7.06249C5.51924 6.85049 7.22439 6.70049 7.22439 6.70049C7.22439 6.70049 7.41022 6.24412 7.69871 5.58966Z" stroke="#38415D"/>
</svg>
